<svg xmlns="http://www.w3.org/2000/svg" viewBox="0 0 180 180"><defs><style>.cls-1{fill:#3498d4;}</style></defs><title>drone_vector</title><g id="Layer_2" data-name="Layer 2"><g id="Layer_1-2" data-name="Layer 1"><path class="cls-1" d="M141.18,117.4l-10.34-10.34a9.14,9.14,0,0,1-2.69-6.5V79.44a9.14,9.14,0,0,1,2.69-6.5L141.18,62.6a14.47,14.47,0,0,0,0-20.47l-3.3-3.3a14.49,14.49,0,0,0-20.47,0L107.07,49.16a9.14,9.14,0,0,1-6.5,2.69H79.44a9.14,9.14,0,0,1-6.5-2.69L62.6,38.82a14.49,14.49,0,0,0-20.47,0l-3.3,3.3a14.49,14.49,0,0,0,0,20.47L49.16,72.94a9.14,9.14,0,0,1,2.69,6.5v21.12a9.14,9.14,0,0,1-2.69,6.5L38.82,117.4a14.49,14.49,0,0,0,0,20.47l3.3,3.3a14.49,14.49,0,0,0,20.47,0l10.34-10.34a9.14,9.14,0,0,1,6.5-2.69h21.12a9.14,9.14,0,0,1,6.5,2.69l10.34,10.34a14.49,14.49,0,0,0,20.47,0l3.3-3.3A14.47,14.47,0,0,0,141.18,117.4ZM98.54,96.59H81.46a6.59,6.59,0,0,1,0-13.17H98.54a6.59,6.59,0,0,1,0,13.17Z"/><path class="cls-1" d="M51.61,1.93a6.59,6.59,0,0,0-9.31,0L29.08,15.15A11.84,11.84,0,0,0,15.15,29.07L1.93,42.29a6.59,6.59,0,0,0,9.31,9.31L24.46,38.39A11.84,11.84,0,0,0,38.39,24.47L51.61,11.24A6.59,6.59,0,0,0,51.61,1.93Z"/><path class="cls-1" d="M178.07,42.29,164.85,29.07a11.84,11.84,0,0,0-13.92-13.92L137.71,1.93a6.59,6.59,0,0,0-9.31,9.31l13.22,13.22a11.84,11.84,0,0,0,13.92,13.92l13.22,13.22a6.59,6.59,0,1,0,9.31-9.31Z"/><path class="cls-1" d="M178.07,128.4a6.59,6.59,0,0,0-9.31,0l-13.22,13.21a11.85,11.85,0,0,0-13.93,13.93l-13.22,13.21a6.59,6.59,0,1,0,9.31,9.31l13.22-13.21a11.82,11.82,0,0,0,10.68-3.25h0a11.82,11.82,0,0,0,3.25-10.69l13.22-13.21A6.59,6.59,0,0,0,178.07,128.4Z"/><path class="cls-1" d="M51.61,168.76,38.38,155.53a11.84,11.84,0,0,0-13.92-13.92L11.24,128.39a6.59,6.59,0,0,0-9.31,9.31l13.23,13.23a11.83,11.83,0,0,0,13.91,13.91l13.23,13.23a6.59,6.59,0,1,0,9.31-9.31Z"/></g></g></svg>